<svg width="120" height="40" viewBox="0 0 120 40" fill="none" xmlns="http://www.w3.org/2000/svg">
<path d="M0 13.2886L13.0087 0.840844C13.0087 0.832079 13.0122 0.823671 13.0184 0.817468C13.0245 0.811265 13.033 0.807772 13.0417 0.807758L39 0.773438V26.5814H25.808V13.425L0 13.2886Z" fill="#0553B1"/>
<path d="M13.1919 15.7734V26.5824H38.9996L26.1175 39.2131L0 39.2335V15.7734H13.1919Z" fill="#041E3C"/>
<rect x="47" y="9.00391" width="73" height="22" rx="11" fill="#6200EE"/>
<path d="M62.884 18.3639H61.192C60.94 17.4759 60.256 17.0079 59.344 17.0079C57.976 17.0079 57.184 18.1239 57.184 19.9359C57.184 21.7599 57.964 22.8399 59.344 22.8399C60.208 22.8399 60.892 22.3959 61.168 21.5439H62.872C62.44 23.2479 61.036 24.1839 59.368 24.1839C56.98 24.1839 55.528 22.5759 55.528 19.9359C55.528 17.3079 57.004 15.6639 59.392 15.6639C61.084 15.6639 62.512 16.5879 62.884 18.3639ZM67.8209 24.1839C65.3489 24.1839 63.8249 22.5639 63.8249 19.9359C63.8249 17.3079 65.3489 15.6639 67.8209 15.6639C70.2929 15.6639 71.8289 17.3079 71.8289 19.9359C71.8289 22.5639 70.2929 24.1839 67.8209 24.1839ZM67.8209 22.8399C69.2969 22.8399 70.1729 21.7479 70.1729 19.9359C70.1729 18.1239 69.2969 17.0079 67.8209 17.0079C66.3449 17.0079 65.4809 18.1119 65.4809 19.9359C65.4809 21.7479 66.3449 22.8399 67.8209 22.8399ZM73.1595 24.0039V15.8439H76.1235C78.6795 15.8439 80.2755 17.3919 80.2755 19.9359C80.2755 22.4799 78.6795 24.0039 76.1235 24.0039H73.1595ZM76.1235 22.6959C77.6955 22.6959 78.6315 21.6759 78.6315 19.9359C78.6315 18.1839 77.6955 17.1519 76.1235 17.1519H74.7795V22.6959H76.1235ZM81.6204 24.0039V15.8439H87.3564V17.1279H83.2404V19.1679H86.9004V20.4399H83.2404V22.7199H87.3564V24.0039H81.6204ZM88.6517 24.0039V15.8439H91.6877C93.6437 15.8439 94.8557 16.8519 94.8557 18.5199C94.8557 20.2359 93.6317 21.2199 91.7117 21.2199H90.2717V24.0039H88.6517ZM91.6637 17.1279H90.2717V19.9359H91.6277C92.6597 19.9359 93.1997 19.3839 93.1997 18.5319C93.1997 17.6799 92.6477 17.1279 91.6637 17.1279ZM101.043 24.0039L100.419 22.3119H96.9388L96.3148 24.0039H94.6948L97.7668 15.8439H99.6748L102.747 24.0039H101.043ZM98.4388 18.2679L97.4068 21.0639H99.9508L98.9188 18.2679L98.6788 17.4279L98.4388 18.2679ZM103.699 24.0039V15.8439H106.663C109.219 15.8439 110.815 17.3919 110.815 19.9359C110.815 22.4799 109.219 24.0039 106.663 24.0039H103.699ZM106.663 22.6959C108.235 22.6959 109.171 21.6759 109.171 19.9359C109.171 18.1839 108.235 17.1519 106.663 17.1519H105.319V22.6959H106.663Z" fill="white"/>
</svg>
